<svg width="802" height="195" viewBox="0 0 802 195" fill="none" xmlns="http://www.w3.org/2000/svg">
<g clip-path="url(#clip0_319_8)">
<path opacity="0.8" d="M148.688 108.089L78.3346 37.8885L42.721 2.34002C39.1674 0.789087 35.3329 -0.00757629 31.4582 2.33455e-05C14.3117 2.33455e-05 0.369178 15.795 0.000226334 35.412V120.179C-0.0613703 124.96 0.815504 129.706 2.58077 134.147C4.34604 138.588 6.96513 142.636 10.2885 146.06C13.6118 149.484 17.5743 152.217 21.9496 154.103C26.325 155.99 31.0275 156.992 35.7886 157.053H134.376C140.167 154.203 145.052 149.788 148.483 144.304C151.913 138.821 153.752 132.485 153.795 126.009C153.792 119.674 152.023 113.466 148.688 108.089Z" fill="#E62C5A"/>
<path opacity="0.8" d="M143.231 37.947H44.6626C38.8716 40.7969 33.9867 45.2117 30.5565 50.6956C27.1262 56.1795 25.2865 62.5152 25.244 68.991C25.2379 75.3281 26.9932 81.5412 30.3123 86.931L100.666 157.131L136.376 192.66C139.913 194.201 143.726 194.997 147.581 195C164.708 195 178.65 179.224 179.019 159.607V74.802C179.139 65.1495 175.435 55.8446 168.724 48.9334C162.013 42.0221 152.843 38.0703 143.231 37.947Z" fill="#4B56C0"/>
<path opacity="0.5" d="M30.3123 86.931L100.666 157.131H134.376C140.167 154.281 145.052 149.866 148.482 144.382C151.913 138.899 153.752 132.563 153.795 126.087C153.798 119.754 152.035 113.546 148.707 108.167L78.3537 37.9665H44.6626C38.8746 40.8149 33.9916 45.2267 30.5615 50.7068C27.1315 56.1869 25.2901 62.5185 25.244 68.991C25.2379 75.3281 26.9932 81.5412 30.3123 86.931Z" fill="#501B8D"/>
</g>
<path d="M257.536 138.768C255.552 138.768 254.016 138.224 252.928 137.136C251.904 135.984 251.392 134.416 251.392 132.432V75.888C251.392 73.84 251.904 72.272 252.928 71.184C254.016 70.096 255.552 69.552 257.536 69.552C259.52 69.552 261.024 70.096 262.048 71.184C263.136 72.272 263.68 73.84 263.68 75.888V98.544H298.528V75.888C298.528 73.84 299.04 72.272 300.064 71.184C301.152 70.096 302.688 69.552 304.672 69.552C306.656 69.552 308.16 70.096 309.184 71.184C310.272 72.272 310.816 73.84 310.816 75.888V132.432C310.816 134.416 310.272 135.984 309.184 137.136C308.16 138.224 306.656 138.768 304.672 138.768C302.688 138.768 301.152 138.224 300.064 137.136C299.04 135.984 298.528 134.416 298.528 132.432V108.816H263.68V132.432C263.68 134.416 263.168 135.984 262.144 137.136C261.12 138.224 259.584 138.768 257.536 138.768ZM345.898 138.96C341.034 138.96 336.81 137.968 333.226 135.984C329.642 134 326.858 131.184 324.874 127.536C322.89 123.824 321.898 119.472 321.898 114.48C321.898 110.704 322.442 107.344 323.53 104.4C324.682 101.392 326.314 98.832 328.426 96.72C330.538 94.544 333.066 92.912 336.01 91.824C338.954 90.672 342.25 90.096 345.898 90.096C350.762 90.096 354.986 91.088 358.57 93.072C362.154 95.056 364.938 97.872 366.922 101.52C368.906 105.168 369.898 109.488 369.898 114.48C369.898 118.256 369.322 121.648 368.17 124.656C367.082 127.664 365.482 130.256 363.37 132.432C361.258 134.544 358.73 136.176 355.786 137.328C352.842 138.416 349.546 138.96 345.898 138.96ZM345.898 129.84C348.266 129.84 350.346 129.264 352.138 128.112C353.93 126.96 355.306 125.264 356.266 123.024C357.29 120.72 357.802 117.872 357.802 114.48C357.802 109.36 356.714 105.552 354.538 103.056C352.362 100.496 349.482 99.216 345.898 99.216C343.53 99.216 341.45 99.792 339.658 100.944C337.866 102.032 336.458 103.728 335.434 106.032C334.474 108.272 333.994 111.088 333.994 114.48C333.994 119.536 335.082 123.376 337.258 126C339.434 128.56 342.314 129.84 345.898 129.84ZM390.769 156.048C389.361 156.048 388.209 155.664 387.313 154.896C386.417 154.192 385.873 153.232 385.681 152.016C385.553 150.8 385.777 149.52 386.353 148.176L392.881 133.68V138.672L375.409 98.256C374.833 96.848 374.641 95.536 374.833 94.32C375.025 93.104 375.601 92.144 376.561 91.44C377.585 90.672 378.961 90.288 380.689 90.288C382.161 90.288 383.345 90.64 384.241 91.344C385.137 91.984 385.937 93.232 386.641 95.088L399.601 127.44H396.721L409.969 94.992C410.673 93.2 411.505 91.984 412.465 91.344C413.425 90.64 414.705 90.288 416.305 90.288C417.713 90.288 418.833 90.672 419.665 91.44C420.497 92.144 421.009 93.104 421.201 94.32C421.393 95.472 421.169 96.752 420.529 98.16L397.201 151.44C396.369 153.232 395.473 154.448 394.513 155.088C393.553 155.728 392.305 156.048 390.769 156.048ZM449.867 138.96C445.003 138.96 440.779 137.968 437.195 135.984C433.611 134 430.827 131.184 428.843 127.536C426.859 123.824 425.867 119.472 425.867 114.48C425.867 110.704 426.411 107.344 427.499 104.4C428.651 101.392 430.283 98.832 432.395 96.72C434.507 94.544 437.035 92.912 439.979 91.824C442.923 90.672 446.219 90.096 449.867 90.096C454.731 90.096 458.955 91.088 462.539 93.072C466.123 95.056 468.907 97.872 470.891 101.52C472.875 105.168 473.867 109.488 473.867 114.48C473.867 118.256 473.291 121.648 472.139 124.656C471.051 127.664 469.451 130.256 467.339 132.432C465.227 134.544 462.699 136.176 459.755 137.328C456.811 138.416 453.515 138.96 449.867 138.96ZM449.867 129.84C452.235 129.84 454.315 129.264 456.107 128.112C457.899 126.96 459.275 125.264 460.235 123.024C461.259 120.72 461.771 117.872 461.771 114.48C461.771 109.36 460.683 105.552 458.507 103.056C456.331 100.496 453.451 99.216 449.867 99.216C447.499 99.216 445.419 99.792 443.627 100.944C441.835 102.032 440.427 103.728 439.403 106.032C438.443 108.272 437.963 111.088 437.963 114.48C437.963 119.536 439.051 123.376 441.227 126C443.403 128.56 446.283 129.84 449.867 129.84ZM517.514 138C515.402 138 513.77 137.456 512.618 136.368C511.53 135.216 510.986 133.584 510.986 131.472V76.848C510.986 74.736 511.53 73.136 512.618 72.048C513.77 70.896 515.402 70.32 517.514 70.32H540.554C545.29 70.32 549.322 71.024 552.65 72.432C555.978 73.84 558.506 75.856 560.234 78.48C562.026 81.104 562.922 84.24 562.922 87.888C562.922 91.984 561.738 95.44 559.37 98.256C557.002 101.072 553.77 102.96 549.674 103.92V102.48C554.41 103.184 558.09 104.976 560.714 107.856C563.338 110.736 564.65 114.48 564.65 119.088C564.65 125.104 562.602 129.776 558.506 133.104C554.474 136.368 548.842 138 541.61 138H517.514ZM522.794 128.688H540.074C544.426 128.688 547.626 127.856 549.674 126.192C551.722 124.464 552.746 121.904 552.746 118.512C552.746 115.056 551.722 112.496 549.674 110.832C547.626 109.168 544.426 108.336 540.074 108.336H522.794V128.688ZM522.794 99.024H538.442C542.666 99.024 545.802 98.224 547.85 96.624C549.962 94.96 551.018 92.528 551.018 89.328C551.018 86.128 549.962 83.728 547.85 82.128C545.802 80.464 542.666 79.632 538.442 79.632H522.794V99.024ZM592.92 138.96C589.016 138.96 585.784 138.256 583.224 136.848C580.664 135.376 578.744 133.2 577.464 130.32C576.248 127.44 575.64 123.856 575.64 119.568V96.336C575.64 94.288 576.152 92.784 577.176 91.824C578.2 90.8 579.672 90.288 581.592 90.288C583.512 90.288 584.984 90.8 586.008 91.824C587.096 92.784 587.64 94.288 587.64 96.336V119.76C587.64 123.088 588.312 125.552 589.656 127.152C591 128.752 593.144 129.552 596.088 129.552C599.288 129.552 601.912 128.464 603.96 126.288C606.008 124.048 607.032 121.104 607.032 117.456V96.336C607.032 94.288 607.544 92.784 608.568 91.824C609.592 90.8 611.064 90.288 612.984 90.288C614.904 90.288 616.376 90.8 617.4 91.824C618.488 92.784 619.031 94.288 619.031 96.336V132.624C619.031 136.72 617.08 138.768 613.176 138.768C611.32 138.768 609.88 138.256 608.856 137.232C607.832 136.144 607.32 134.608 607.32 132.624V125.328L608.664 128.208C607.32 131.664 605.272 134.32 602.52 136.176C599.832 138.032 596.632 138.96 592.92 138.96ZM649.569 138.96C645.473 138.96 641.857 137.968 638.721 135.984C635.649 134 633.249 131.184 631.521 127.536C629.793 123.824 628.929 119.472 628.929 114.48C628.929 109.424 629.793 105.104 631.521 101.52C633.249 97.872 635.649 95.056 638.721 93.072C641.857 91.088 645.473 90.096 649.569 90.096C653.473 90.096 656.865 91.056 659.745 92.976C662.689 94.896 664.673 97.424 665.697 100.56H664.641V75.6C664.641 73.616 665.153 72.112 666.177 71.088C667.201 70.064 668.673 69.552 670.593 69.552C672.513 69.552 673.985 70.064 675.009 71.088C676.097 72.112 676.641 73.616 676.641 75.6V132.624C676.641 134.608 676.129 136.144 675.105 137.232C674.081 138.256 672.609 138.768 670.689 138.768C668.769 138.768 667.297 138.256 666.273 137.232C665.249 136.144 664.737 134.608 664.737 132.624V125.136L665.793 128.016C664.833 131.344 662.881 134 659.937 135.984C656.993 137.968 653.537 138.96 649.569 138.96ZM652.929 129.84C655.297 129.84 657.377 129.264 659.169 128.112C660.961 126.96 662.337 125.264 663.297 123.024C664.321 120.72 664.833 117.872 664.833 114.48C664.833 109.36 663.745 105.552 661.569 103.056C659.393 100.496 656.513 99.216 652.929 99.216C650.561 99.216 648.481 99.792 646.689 100.944C644.897 102.032 643.489 103.728 642.465 106.032C641.505 108.272 641.025 111.088 641.025 114.48C641.025 119.536 642.113 123.376 644.289 126C646.465 128.56 649.345 129.84 652.929 129.84ZM707.132 138.96C703.036 138.96 699.42 137.968 696.284 135.984C693.212 134 690.812 131.184 689.084 127.536C687.356 123.824 686.492 119.472 686.492 114.48C686.492 109.424 687.356 105.104 689.084 101.52C690.812 97.872 693.212 95.056 696.284 93.072C699.42 91.088 703.036 90.096 707.132 90.096C711.036 90.096 714.428 91.056 717.308 92.976C720.252 94.896 722.236 97.424 723.26 100.56H722.204V75.6C722.204 73.616 722.716 72.112 723.74 71.088C724.764 70.064 726.236 69.552 728.156 69.552C730.076 69.552 731.548 70.064 732.572 71.088C733.66 72.112 734.204 73.616 734.204 75.6V132.624C734.204 134.608 733.692 136.144 732.668 137.232C731.644 138.256 730.172 138.768 728.252 138.768C726.332 138.768 724.86 138.256 723.836 137.232C722.812 136.144 722.3 134.608 722.3 132.624V125.136L723.356 128.016C722.396 131.344 720.444 134 717.5 135.984C714.556 137.968 711.1 138.96 707.132 138.96ZM710.492 129.84C712.86 129.84 714.94 129.264 716.732 128.112C718.524 126.96 719.9 125.264 720.86 123.024C721.884 120.72 722.396 117.872 722.396 114.48C722.396 109.36 721.308 105.552 719.132 103.056C716.956 100.496 714.076 99.216 710.492 99.216C708.124 99.216 706.044 99.792 704.252 100.944C702.46 102.032 701.052 103.728 700.028 106.032C699.068 108.272 698.588 111.088 698.588 114.48C698.588 119.536 699.676 123.376 701.852 126C704.028 128.56 706.908 129.84 710.492 129.84ZM758.55 156.048C757.142 156.048 755.99 155.664 755.094 154.896C754.198 154.192 753.654 153.232 753.462 152.016C753.334 150.8 753.558 149.52 754.134 148.176L760.662 133.68V138.672L743.19 98.256C742.614 96.848 742.422 95.536 742.614 94.32C742.806 93.104 743.382 92.144 744.342 91.44C745.366 90.672 746.742 90.288 748.47 90.288C749.942 90.288 751.126 90.64 752.022 91.344C752.918 91.984 753.718 93.232 754.422 95.088L767.382 127.44H764.502L777.75 94.992C778.454 93.2 779.286 91.984 780.246 91.344C781.206 90.64 782.486 90.288 784.086 90.288C785.494 90.288 786.614 90.672 787.446 91.44C788.278 92.144 788.79 93.104 788.982 94.32C789.174 95.472 788.95 96.752 788.31 98.16L764.982 151.44C764.15 153.232 763.254 154.448 762.294 155.088C761.334 155.728 760.086 156.048 758.55 156.048Z" fill="#4B56C0"/>
<defs>
<clipPath id="clip0_319_8">
<rect width="179" height="195" fill="white"/>
</clipPath>
</defs>
</svg>
